<?xml version="1.0" encoding="UTF-8"?>
<svg id="Layer_1" data-name="Layer 1" xmlns="http://www.w3.org/2000/svg" viewBox="0 0 29.88 30.89">
  <!-- <defs>
    <style>
      .cls-1 {
        fill: #fff;
        stroke: #231f20;
        stroke-miterlimit: 10;
      }
    </style>
  </defs> -->
  <path class="cls-1" d="M2.28,30.39H26.75s2.57-1.85,2.64-4.42-3.3-3.82-3.3-3.82H3.47s-2.9,1.98-2.97,4.12,1.78,4.12,1.78,4.12Z"/>
  <path class="cls-1" d="M.5,19.44s.27,2.7,2.97,2.7H26.09s3.23-.79,3.3-2.7-3.3-3.43-3.3-3.43H3.27s-2.51,.07-2.77,3.43Z"/>
  <path class="cls-1" d="M1.49,11.86s-.46,4.15,1.78,4.15H26.09s2.24-1.45,2.24-4.15-2.9-3.43-2.9-3.43H3.67s-1.78,.79-2.18,3.43Z"/>
  <path class="cls-1" d="M13.95,.72s7.52,7.71,5.27,7.71H9.14c-.46-.46,4.48-7.71,4.48-7.71,0,0,.18-.49,.33,0Z"/>
</svg>